<svg width="20" height="20" viewBox="0 0 20 20" fill="none" xmlns="http://www.w3.org/2000/svg">
<path d="M3.33312 8.33298L2.74395 8.92215L2.15479 8.33298L2.74395 7.74382L3.33312 8.33298ZM17.4998 14.9996C17.4998 15.2207 17.412 15.4326 17.2557 15.5889C17.0994 15.7452 16.8875 15.833 16.6665 15.833C16.4454 15.833 16.2335 15.7452 16.0772 15.5889C15.9209 15.4326 15.8331 15.2207 15.8331 14.9996H17.4998ZM6.91062 13.0888L2.74395 8.92215L3.92228 7.74382L8.08895 11.9105L6.91062 13.0888ZM2.74395 7.74382L6.91062 3.57715L8.08895 4.75548L3.92228 8.92215L2.74395 7.74382ZM3.33312 7.49965H11.6665V9.16631H3.33312V7.49965ZM17.4998 13.333V14.9996H15.8331V13.333H17.4998ZM11.6665 7.49965C13.2135 7.49965 14.6973 8.11423 15.7912 9.20819C16.8852 10.3022 17.4998 11.7859 17.4998 13.333H15.8331C15.8331 12.2279 15.3941 11.1681 14.6127 10.3867C13.8313 9.6053 12.7715 9.16631 11.6665 9.16631V7.49965Z" fill="black"/>
</svg>
