<svg width="20" height="20" viewBox="0 0 20 20" fill="none" xmlns="http://www.w3.org/2000/svg">
<path d="M9.95817 15.0003C10.2498 15.0003 10.4965 14.8995 10.6982 14.6978C10.8998 14.4962 11.0004 14.2498 10.9998 13.9587C10.9993 13.6676 10.8987 13.4209 10.6982 13.2187C10.4976 13.0164 10.2509 12.9159 9.95817 12.917C9.66539 12.9181 9.419 13.0189 9.219 13.2195C9.019 13.4201 8.91817 13.6664 8.9165 13.9587C8.91484 14.2509 9.01567 14.4976 9.219 14.6987C9.42234 14.8998 9.66873 15.0003 9.95817 15.0003ZM9.20817 11.792H10.7498C10.7498 11.3337 10.8021 10.9726 10.9065 10.7087C11.0109 10.4448 11.3059 10.0837 11.7915 9.62533C12.1526 9.26422 12.4373 8.92033 12.6457 8.59366C12.854 8.267 12.9582 7.87477 12.9582 7.417C12.9582 6.63922 12.6734 6.042 12.104 5.62533C11.5346 5.20866 10.8609 5.00033 10.0832 5.00033C9.2915 5.00033 8.64928 5.20866 8.15651 5.62533C7.66373 6.042 7.31984 6.542 7.12484 7.12533L8.49984 7.667C8.56928 7.417 8.72567 7.14616 8.969 6.8545C9.21234 6.56283 9.58373 6.417 10.0832 6.417C10.5276 6.417 10.8609 6.53866 11.0832 6.782C11.3054 7.02533 11.4165 7.29255 11.4165 7.58366C11.4165 7.86144 11.3332 8.122 11.1665 8.36533C10.9998 8.60866 10.7915 8.83422 10.5415 9.042C9.93039 9.58366 9.55539 9.99338 9.4165 10.2712C9.27762 10.5489 9.20817 11.0559 9.20817 11.792ZM9.99984 18.3337C8.84706 18.3337 7.76373 18.1151 6.74984 17.6778C5.73595 17.2406 4.854 16.6467 4.10401 15.8962C3.354 15.1456 2.76039 14.2637 2.32317 13.2503C1.88595 12.237 1.66706 11.1537 1.6665 10.0003C1.66595 8.847 1.88484 7.76366 2.32317 6.75033C2.76151 5.737 3.35512 4.85505 4.10401 4.1045C4.85289 3.35394 5.73484 2.76033 6.74984 2.32366C7.76484 1.887 8.84817 1.66811 9.99984 1.667C11.1515 1.66589 12.2348 1.88477 13.2498 2.32366C14.2648 2.76255 15.1468 3.35616 15.8957 4.1045C16.6446 4.85283 17.2384 5.73477 17.6773 6.75033C18.1162 7.76589 18.3348 8.84922 18.3332 10.0003C18.3315 11.1514 18.1126 12.2348 17.6765 13.2503C17.2404 14.2659 16.6468 15.1478 15.8957 15.8962C15.1446 16.6445 14.2626 17.2384 13.2498 17.6778C12.2371 18.1173 11.1537 18.3359 9.99984 18.3337Z" fill="black"/>
</svg>
